<?xml version="1.0" encoding="UTF-8"?>
<svg id="Layer_1" data-name="Layer 1" xmlns="http://www.w3.org/2000/svg" viewBox="0 0 174.96 130.49">
  <defs>
    <style>
      .cls-1 {
        fill: #fff;
      }
    </style>
  </defs>
  <path class="cls-1" d="M9.11,0h156.75c5.03,0,9.11,2.82,9.11,6.3h0c0,3.48-4.08,6.3-9.11,6.3H9.11C4.08,12.6,0,9.78,0,6.3h0C0,2.82,4.08,0,9.11,0Z"/>
  <path class="cls-1" d="M9.11,58.95h156.75c5.03,0,9.11,2.82,9.11,6.3h0c0,3.48-4.08,6.3-9.11,6.3H9.11c-5.03,0-9.11-2.82-9.11-6.3h0c0-3.48,4.08-6.3,9.11-6.3Z"/>
  <path class="cls-1" d="M9.11,117.89h156.75c5.03,0,9.11,2.82,9.11,6.3h0c0,3.48-4.08,6.3-9.11,6.3H9.11c-5.03,0-9.11-2.82-9.11-6.3h0c0-3.48,4.08-6.3,9.11-6.3Z"/>
</svg>