<?xml version="1.0" encoding="UTF-8"?>
<svg id="Layer_2" data-name="Layer 2" xmlns="http://www.w3.org/2000/svg" viewBox="0 0 792.79 140.55">
  <defs>
    <style>
      .cls-1 {
        fill: #fff;
      }
    </style>
  </defs>
  <g id="Layer_3" data-name="Layer 3">
    <g id="Colored">
      <path class="cls-1" d="M196.66,88.09l-52.96,25.07c2.6-1.15,45.57-25.75,49.11-27.01,0,0-2.11-4.19-5.36-6.99,0,0-24.44,12.08-36.36,19.58.24-.88,20.7-15.26,32.46-20.48,1.78-.62.85-1.63.62-2.06-.24-.44-1.37-1.73-1.37-1.73l-.49-.51-.02-.02-3.98-4.21s.41,3.27-2.76,5.21c-.06.03-.12.08-.17.11-8.4,5.11-25.07,15.7-32.34,23.44.85-.98,8.04-8.98,20.54-17.82.4-.28.8-.57,1.22-.85.1-.07.21-.15.32-.22,3.9-2.8,6.12-5.86,7.33-8.71,1.98-4.63,1.33-8.69.99-10.11.12.96-.06,3.26-2.93,7.74-1.95,3.06-5.9,6.38-9.43,8.98-3.24,2.38-6.12,4.15-6.77,4.54-.02.01-.04.03-.06.03-.05.03-.08.05-.08.05-5.89,4.18-12.04,9.2-17.29,14.87-.48.53-.97,1.06-1.44,1.6-3.51,4.01-5.68,6.96-6.94,9.13-2.78-5.05-8.04-12.72-16.89-19.17-14.63-10.65-31.42-16.25-27.99-46.95l-22.93,17.51s-1.34,8.43,18.08,19.59c17.98,10.32,35.75,24.07,38.29,26.06-15.96-9.6-40.32-24.23-44.1-26.3-5.68-3.13-18.55-9.14-15.44-26.75L12.42,92.47v2.03l40.36-21.27,65.2,33.28-65.06-28.06L0,106.8l61.22,26.01,41.32-10.98s-4.89,1.88-40.47,12.42h0c1.38,2.05,4.46,5.63,9.44,6.14,7.04.72,12.09-1.27,12.09-1.27l50.21-14.81s4.87-2.17,6.68-4.87l57.24-29.26s.68-1.83-1.08-2.1ZM118.8,119.17s10.26,5.24,19.47,0c0,0-9.15,8.04-19.47,0Z"/>
      <path id="stars" class="cls-1" d="M133.28,77.74l-.17-2.21c-.33-4.19-3.04-7.82-6.97-9.31l-2.08-.79,2.21-.17c4.19-.33,7.82-3.04,9.31-6.97l.79-2.08.17,2.21c.33,4.19,3.04,7.82,6.97,9.31l2.08.79-2.21.17c-4.19.33-7.82,3.04-9.31,6.97l-.79,2.08ZM119.36,46.31h0,0c-2.92-1.11-4.94-3.81-5.18-6.93h0s0,0,0,0c-1.11,2.92-3.81,4.94-6.93,5.18h0,0c2.92,1.11,4.94,3.81,5.18,6.93h0s0,0,0,0c1.11-2.92,3.81-4.94,6.93-5.18ZM140.89,32.06h0,0c-2.92-1.11-4.94-3.81-5.18-6.93h0s0,0,0,0c-1.11,2.92-3.81,4.94-6.93,5.18h0,0c2.92,1.11,4.94,3.81,5.18,6.93h0s0,0,0,0c1.11-2.92,3.81-4.94,6.93-5.18ZM119.38,18.94h0,0c-2.51-.96-4.24-3.27-4.45-5.95h0s0,0,0,0c-.96,2.51-3.27,4.24-5.95,4.45h0,0c2.51.96,4.24,3.27,4.45,5.95h0s0,0,0,0c.96-2.51,3.27-4.24,5.95-4.45ZM100.37,4.72h0,0C98.38,3.96,97,2.12,96.84,0h0s0,0,0,0c-.76,1.99-2.6,3.37-4.72,3.53h0,0c1.99.76,3.37,2.6,3.53,4.72h0s0,0,0,0c.76-1.99,2.6-3.37,4.72-3.53Z"/>
    </g>
    <g>
      <g>
        <path class="cls-1" d="M246.14,94.13c0,6.72-6.1,11.23-14.79,11.23-8.18,0-14.73-4.01-14.73-9.26,0-1.86,1.41-3.22,3.33-3.22,1.81,0,3.16,1.35,3.16,3.22s-1.35,3.22-3.16,3.22c-.17,0-.34,0-.51-.06,1.75,2.88,5.87,4.74,10.78,4.74,6.1,0,10.44-2.94,10.44-7.06,0-4.46-4.97-6.55-10.61-8.86-5.81-2.37-12.7-5.14-12.7-12.25,0-6.6,6.04-11.12,14.17-11.12,7.39,0,13.09,3.67,13.09,8.64,0,1.86-1.35,3.22-3.1,3.22-1.98,0-3.39-1.36-3.39-3.22s1.41-3.22,3.39-3.22h.28c-1.64-2.48-5.14-4.06-9.31-4.06-5.64,0-9.88,3.1-9.88,7.22,0,4.68,5.36,6.89,10.78,8.97,6.43,2.48,12.76,4.97,12.76,11.85Z"/>
        <path class="cls-1" d="M279.67,66.41h-12.7v38.38h-6.72v-38.38h-12.7v-1.13h32.12v1.13Z"/>
        <path class="cls-1" d="M279.84,85.04c0-11.57,8.92-20.32,20.83-20.32s20.83,8.75,20.83,20.32-8.97,20.32-20.83,20.32-20.83-8.75-20.83-20.32ZM314.55,85.04c0-11.57-5.53-19.19-13.88-19.19s-13.88,7.62-13.88,19.19,5.48,19.19,13.88,19.19,13.88-7.62,13.88-19.19Z"/>
        <path class="cls-1" d="M362.36,104.8h-7.45c-1.19-.79-2.15-2.09-2.77-3.27l-5.64-10.89c-.62-1.13-1.64-2.2-2.93-2.77h-8.13v16.93h-6.72v-39.51h16.2c8.24,0,14.56,4.74,14.56,11.29,0,5.81-4.97,10.22-11.91,11.12,3.1.68,5.7,2.2,6.89,4.68l4.46,8.13c.9,1.75,2.26,3.5,3.44,4.29ZM335.44,86.73h8.01c5.47,0,9.09-4.01,9.09-10.16s-3.61-10.16-9.09-10.16h-8.01v20.32Z"/>
        <path class="cls-1" d="M398.15,65.29l-14.39,22.58v16.93h-6.72v-16.93l-14.34-22.58h7.34l13.26,20.88,13.21-20.88h1.64Z"/>
        <path class="cls-1" d="M435.46,94.52c0,5.93-5.42,10.27-12.3,10.27h-19.75v-39.51h18.06c7.05,0,12.3,4.29,12.3,9.71,0,4.57-3.61,7.9-9.26,9.31,6.49,1.18,10.95,4.85,10.95,10.22ZM410.12,66.41v17.5h8.07c5.25,0,8.63-2.99,8.63-8.64s-3.05-8.86-7.79-8.86h-8.92ZM428.52,94.47c0-7.17-4.68-9.43-8.64-9.43h-9.76v18.63h10.61c4.74,0,7.79-3.56,7.79-9.2Z"/>
        <path class="cls-1" d="M439.75,85.04c0-11.57,8.92-20.32,20.83-20.32s20.83,8.75,20.83,20.32-8.97,20.32-20.83,20.32-20.83-8.75-20.83-20.32ZM474.46,85.04c0-11.57-5.53-19.19-13.88-19.19s-13.88,7.62-13.88,19.19,5.47,19.19,13.88,19.19,13.88-7.62,13.88-19.19Z"/>
        <path class="cls-1" d="M486.32,85.04c0-11.57,8.92-20.32,20.83-20.32s20.83,8.75,20.83,20.32-8.97,20.32-20.83,20.32-20.83-8.75-20.83-20.32ZM521.03,85.04c0-11.57-5.53-19.19-13.88-19.19s-13.88,7.62-13.88,19.19,5.47,19.19,13.88,19.19,13.88-7.62,13.88-19.19Z"/>
        <path class="cls-1" d="M546.66,84.31l-4.74,4.29v16.2h-6.72v-39.51h6.72v21.56l23.93-21.56h1.98l-16.37,14.73,17.67,24.78h-7.79l-14.67-20.49Z"/>
      </g>
      <g>
        <path class="cls-1" d="M605.86,83.82c-2.22-1.07-4.42-1.64-6.54-2.19-1.68-.44-3.42-.89-5.22-1.59-3.74-1.47-5.41-3.33-5.41-6.03,0-5,3.51-7.53,10.42-7.53,2.01,0,3.94.3,5.91.93.94.29,1.57.64,2.08.92.53.29.98.54,1.52.54.82,0,1.44-.59,1.44-1.38,0-1.03-1.06-1.5-1.91-1.88l-.26-.12c-2.39-1.11-5.67-1.78-8.77-1.78-8.58,0-13.3,3.66-13.3,10.3,0,3.95,2.4,6.87,7.12,8.65,2.17.84,4.16,1.36,5.91,1.82,2.14.56,3.98,1.05,5.81,1.95,2.83,1.38,4.27,3.43,4.27,6.11,0,5.38-3.76,8.46-10.31,8.46-3.19,0-5.51-.72-6.9-1.33-1.76-.78-2.52-1.43-3.02-1.86-.42-.36-.85-.73-1.5-.73-.9,0-1.55.63-1.55,1.49,0,.67.49,1.33.99,1.65,2.35,1.72,6.72,3.54,11.98,3.54,8.26,0,13.19-4.23,13.19-11.33,0-4.99-3.72-7.54-5.95-8.62Z"/>
        <path class="cls-1" d="M635.19,63.72c-10.87,0-20.05,9.2-20.05,20.08s9,19.97,20.05,19.97,20.11-9.15,20.11-19.97-9.21-20.08-20.11-20.08ZM635.19,66.54c9.34,0,17.23,7.91,17.23,17.27s-7.73,17.21-17.23,17.21-17.18-7.72-17.18-17.21,7.87-17.27,17.18-17.27Z"/>
        <path class="cls-1" d="M662.2,63.72c-.79,0-1.44.64-1.44,1.44v37.18c0,.79.65,1.43,1.44,1.43s1.44-.64,1.44-1.43v-37.18c0-.79-.65-1.44-1.44-1.44Z"/>
        <path class="cls-1" d="M687.44,87.16c2.51-.1,4.96-.48,7.29-1.85,3.31-1.99,4.99-5.21,4.99-9.55s-1.67-7.78-4.94-9.67c-2.94-1.73-6.08-1.88-9.29-1.88h-13.4c-.79,0-1.44.64-1.44,1.44v36.69c0,.79.65,1.43,1.44,1.43s1.44-.64,1.44-1.43v-15.15h10.12l13.49,16.08c.15.15.51.5,1.14.5.98,0,1.49-.69,1.49-1.38,0-.5-.22-.83-.46-1.13l-11.88-14.1ZM673.52,66.97h11.52c3.63,0,5.99.22,8.07,1.39,2.47,1.41,3.72,3.9,3.72,7.39s-1.27,5.85-3.77,7.28c-2.08,1.17-4.45,1.39-8.08,1.39h-11.46v-17.46Z"/>
        <path class="cls-1" d="M730.95,66.97c.78,0,1.38-.61,1.38-1.38s-.61-1.38-1.38-1.38h-24.55c-.79,0-1.44.64-1.44,1.44v36.15c0,.79.65,1.43,1.44,1.43h24.55c.78,0,1.38-.61,1.38-1.38s-.61-1.38-1.38-1.38h-23.11v-15.34h20.31c.78,0,1.38-.61,1.38-1.38s-.61-1.38-1.38-1.38h-20.31v-15.4h23.11Z"/>
        <path class="cls-1" d="M762.63,66.97c.78,0,1.38-.61,1.38-1.38s-.61-1.38-1.38-1.38h-24.54c-.79,0-1.44.64-1.44,1.44v36.15c0,.79.65,1.43,1.44,1.43h24.54c.78,0,1.38-.61,1.38-1.38s-.61-1.38-1.38-1.38h-23.11v-15.34h20.31c.78,0,1.38-.61,1.38-1.38s-.61-1.38-1.38-1.38h-20.31v-15.4h23.11Z"/>
        <path class="cls-1" d="M786.84,83.82c-2.22-1.07-4.42-1.64-6.54-2.19-1.68-.44-3.42-.89-5.22-1.59-3.74-1.47-5.41-3.33-5.41-6.03,0-5,3.51-7.53,10.42-7.53,2.01,0,3.94.3,5.91.93.94.29,1.57.64,2.08.92.53.29.98.54,1.51.54.82,0,1.44-.59,1.44-1.38,0-1.03-1.06-1.5-1.91-1.88l-.26-.12c-2.39-1.11-5.67-1.78-8.77-1.78-8.58,0-13.3,3.66-13.3,10.3,0,3.95,2.4,6.87,7.12,8.65,2.17.83,4.16,1.36,5.91,1.82,2.14.56,3.98,1.05,5.82,1.95,2.83,1.38,4.27,3.43,4.27,6.11,0,5.38-3.76,8.46-10.31,8.46-3.19,0-5.51-.72-6.9-1.33-1.76-.78-2.52-1.43-3.02-1.86-.42-.36-.85-.73-1.51-.73-.9,0-1.55.63-1.55,1.49,0,.67.49,1.33.99,1.65,2.35,1.72,6.72,3.54,11.98,3.54,8.26,0,13.19-4.23,13.19-11.33,0-4.99-3.72-7.54-5.95-8.62Z"/>
      </g>
    </g>
  </g>
</svg>