<?xml version="1.0" encoding="UTF-8"?>
<svg id="Layer_2" data-name="Layer 2" xmlns="http://www.w3.org/2000/svg" xmlns:xlink="http://www.w3.org/1999/xlink" viewBox="0 0 817.02 285.48">
  <defs>
    <style>
      .cls-1 {
        fill: #58227e;
      }

      .cls-2 {
        fill: url(#linear-gradient);
      }
    </style>
    <linearGradient id="linear-gradient" x1="274.09" y1="14.28" x2="346.87" y2="140.28" gradientUnits="userSpaceOnUse">
      <stop offset="0" stop-color="#fff"/>
      <stop offset="0" stop-color="#ed3293"/>
      <stop offset=".02" stop-color="#d25bac"/>
      <stop offset=".05" stop-color="#ba7ec1"/>
      <stop offset=".07" stop-color="#a79bd3"/>
      <stop offset=".1" stop-color="#98b2e1"/>
      <stop offset=".13" stop-color="#8ec2eb"/>
      <stop offset=".17" stop-color="#87ccf1"/>
      <stop offset=".21" stop-color="#86cff3"/>
      <stop offset=".27" stop-color="#8bcaee"/>
      <stop offset=".34" stop-color="#9abfe2"/>
      <stop offset=".42" stop-color="#b2acce"/>
      <stop offset=".51" stop-color="#d491b3"/>
      <stop offset=".57" stop-color="#f27b9c"/>
      <stop offset=".64" stop-color="#ee789b"/>
      <stop offset=".71" stop-color="#e36f9a"/>
      <stop offset=".77" stop-color="#d16197"/>
      <stop offset=".83" stop-color="#b74e93"/>
      <stop offset=".89" stop-color="#97358f"/>
      <stop offset=".92" stop-color="#86288d"/>
    </linearGradient>
  </defs>
  <g id="Colored">
    <path class="cls-1" d="M418.54,154.74l-76.51,36.22c3.75-1.66,65.83-37.19,70.95-39.01,0,0-3.05-6.06-7.75-10.1,0,0-35.3,17.45-52.53,28.28.35-1.27,29.91-22.04,46.89-29.59,2.57-.9,1.23-2.35.89-2.98-.34-.64-1.98-2.5-1.98-2.5l-.71-.74-.03-.03-5.75-6.08s.59,4.72-3.98,7.52c-.09.05-.17.11-.25.16-12.14,7.38-36.22,22.68-46.72,33.86,1.23-1.41,11.61-12.97,29.67-25.74.58-.41,1.16-.82,1.76-1.23.15-.1.31-.21.46-.32,5.64-4.04,8.84-8.47,10.59-12.58,2.86-6.69,1.92-12.56,1.43-14.61.18,1.38-.09,4.71-4.23,11.18-2.82,4.42-8.53,9.22-13.62,12.97-4.68,3.44-8.84,6-9.78,6.56-.03.02-.06.04-.08.05-.07.05-.11.07-.11.07-8.51,6.04-17.39,13.29-24.97,21.48-.7.76-1.4,1.53-2.08,2.31-5.07,5.8-8.21,10.06-10.03,13.19-4.01-7.3-11.62-18.38-24.4-27.69-21.13-15.39-45.39-23.48-40.44-67.82l-33.13,25.3s-1.94,12.18,26.12,28.3c25.97,14.91,51.64,34.77,55.32,37.64-23.05-13.87-58.24-35-63.7-37.99-8.21-4.52-26.8-13.21-22.3-38.65l-65.15,58.9v2.93l58.3-30.72,94.19,48.08-93.99-40.54-76.44,40.95,88.44,37.57,59.69-15.86s-7.06,2.72-58.46,17.94h0c1.99,2.97,6.44,8.13,13.64,8.87,10.17,1.04,17.47-1.83,17.47-1.83l72.53-21.39s7.04-3.13,9.65-7.04l82.69-42.27s.98-2.64-1.56-3.03ZM306.07,199.63s14.83,7.57,28.13,0c0,0-13.22,11.61-28.13,0Z"/>
    <path id="stars" class="cls-2" d="M326.99,139.78l-.49-6.25c-.33-4.19-3.04-7.82-6.97-9.31l-5.86-2.23,6.25-.49c4.19-.33,7.82-3.04,9.31-6.97l2.23-5.86.49,6.25c.33,4.19,3.04,7.82,6.97,9.31l5.86,2.23-6.25.49c-4.19.33-7.82,3.04-9.31,6.97l-2.23,5.86ZM297.17,101.07c1.42-3.73,4.87-6.31,8.85-6.62l.86-.07-.81-.31c-3.73-1.42-6.31-4.87-6.62-8.85l-.07-.86-.31.81c-1.42,3.73-4.87,6.31-8.85,6.62l-.86.07.81.31c3.73,1.42,6.31,4.87,6.62,8.85l.07.86.31-.81ZM328.28,80.47c1.42-3.73,4.87-6.31,8.85-6.62l.86-.07-.81-.31c-3.73-1.42-6.31-4.87-6.62-8.85l-.07-.86-.31.81c-1.42,3.73-4.87,6.31-8.85,6.62l-.86.07.81.31c3.73,1.42,6.31,4.87,6.62,8.85l.07.86.31-.81ZM298.31,61.28c1.38-3.63,4.73-6.13,8.6-6.43h0,0c-3.63-1.38-6.13-4.73-6.43-8.6h0s0,0,0,0c-1.38,3.63-4.73,6.13-8.6,6.43h0,0c3.63,1.38,6.13,4.73,6.43,8.6h0s0,0,0,0ZM272.62,39.4c1.1-2.88,3.75-4.86,6.82-5.1h0,0c-2.88-1.1-4.86-3.75-5.1-6.82h0s0,0,0,0c-1.1,2.88-3.75,4.86-6.82,5.1h0,0c2.88,1.1,4.86,3.75,5.1,6.82h0s0,0,0,0Z"/>
    <g>
      <g>
        <path class="cls-1" d="M128.85,270.7c0,3.78-3.41,6.42-8.37,6.42-4.59,0-8.31-2.23-8.31-5.18,0-1.15.9-2.01,2.14-2.01,1.12,0,1.95.87,1.95,2.01s-.84,2.05-1.95,2.05c-.12,0-.22,0-.34-.03,1.05,1.43,3.16,2.33,5.61,2.33,3.13,0,5.36-1.46,5.36-3.57,0-2.29-2.54-3.38-5.43-4.59-3.22-1.36-6.98-2.88-6.98-6.91s3.44-6.42,8.06-6.42c4.19,0,7.41,2.05,7.41,4.81,0,1.18-.84,2.05-1.95,2.05-1.24,0-2.14-.87-2.14-2.05s.9-2.02,2.14-2.02h.19c-.93-1.21-2.76-1.98-4.87-1.98-2.95,0-5.15,1.58-5.15,3.75,0,2.48,2.79,3.6,5.64,4.71,3.44,1.36,6.98,2.73,6.98,6.63Z"/>
        <path class="cls-1" d="M146.95,255.72h-6.6v21.08h-4.74v-21.08h-6.6v-.62h17.95v.62Z"/>
        <path class="cls-1" d="M146.73,265.95c0-6.36,4.99-11.16,11.6-11.16s11.6,4.81,11.6,11.16-4.99,11.16-11.6,11.16-11.6-4.81-11.6-11.16ZM165.06,265.95c0-6.36-2.7-10.54-6.73-10.54s-6.73,4.19-6.73,10.54,2.67,10.54,6.73,10.54,6.73-4.19,6.73-10.54Z"/>
        <path class="cls-1" d="M192.34,276.8h-5.12c-.59-.37-1.12-1.15-1.43-1.8l-2.88-6.23c-.28-.56-.74-1.02-1.43-1.27h-3.38v9.3h-4.74v-21.7h9.24c4.62,0,8.15,2.6,8.15,6.23,0,3.22-2.79,5.58-6.67,6.08,1.98.34,3.72,1.21,4.46,2.88l2.02,4.16c.47.96,1.15,1.92,1.77,2.36ZM178.1,266.88h3.38c2.67,0,4.4-2.2,4.4-5.58s-1.74-5.58-4.4-5.58h-3.38v11.16Z"/>
        <path class="cls-1" d="M211.68,255.1l-7.53,12.4v9.3h-4.74v-9.3l-7.5-12.4h5.15l6.88,11.41,6.85-11.41h.9Z"/>
        <path class="cls-1" d="M232.23,271.13c0,3.32-3.1,5.67-6.91,5.67h-11.29v-21.7h10.36c3.97,0,6.91,2.33,6.91,5.36,0,2.54-2.08,4.34-5.46,5.08,3.78.65,6.39,2.57,6.39,5.58ZM218.78,255.72v9.61h3.22c2.67,0,4.43-1.49,4.43-4.71,0-3.04-1.58-4.9-3.97-4.9h-3.69ZM227.36,271.07c0-4.4-2.88-5.12-4.43-5.12h-4.15v10.23h4.62c2.39,0,3.97-1.92,3.97-5.12Z"/>
        <path class="cls-1" d="M233.97,265.95c0-6.36,4.99-11.16,11.6-11.16s11.6,4.81,11.6,11.16-4.99,11.16-11.6,11.16-11.6-4.81-11.6-11.16ZM252.29,265.95c0-6.36-2.7-10.54-6.73-10.54s-6.73,4.19-6.73,10.54,2.67,10.54,6.73,10.54,6.73-4.19,6.73-10.54Z"/>
        <path class="cls-1" d="M259.45,265.95c0-6.36,4.99-11.16,11.6-11.16s11.6,4.81,11.6,11.16-4.99,11.16-11.6,11.16-11.6-4.81-11.6-11.16ZM277.77,265.95c0-6.36-2.7-10.54-6.73-10.54s-6.73,4.19-6.73,10.54,2.67,10.54,6.73,10.54,6.73-4.19,6.73-10.54Z"/>
        <path class="cls-1" d="M292.77,265.95l-1.95,1.77v9.08h-4.74v-21.7h4.74v11.66l12.93-11.66h1.08l-8.68,7.81,9.43,13.89h-5.49l-7.32-10.85Z"/>
      </g>
      <g>
        <path class="cls-1" d="M327.66,256.24c-.48,0-1.03-.48-2.2-.85-1-.34-2.2-.61-3.64-.61-4.19,0-6.22,1.6-6.22,4.52,0,1.94,1.37,3.06,3.57,3.88,2.47.95,4.81,1.19,7.11,2.38,1.65.88,3.19,2.45,3.19,4.93,0,4.25-3.16,6.66-7.97,6.66-2.82,0-5.32-.95-6.9-1.84-.45-.24-.82-.65-.82-1.05,0-.51.38-.82.82-.82.55,0,.86.61,2.61,1.39,1.13.51,2.51.88,4.29.88,4.09,0,6.22-2.04,6.22-5.1,0-1.94-1.27-3.16-2.99-3.94-2.13-.99-4.4-1.22-7.08-2.38-2.2-.95-3.78-2.45-3.78-4.96,0-3.81,2.82-5.98,8-5.98,1.96,0,3.98.44,5.29,1.02.62.27,1.27.61,1.27,1.12,0,.44-.31.75-.79.75Z"/>
        <path class="cls-1" d="M344.69,277.14c-6.66,0-12.06-5.3-12.06-11.86s5.39-11.93,12.06-11.93,12.09,5.37,12.09,11.93-5.43,11.86-12.09,11.86ZM344.69,254.88c-5.77,0-10.34,4.76-10.34,10.4s4.57,10.37,10.34,10.37,10.37-4.73,10.37-10.37-4.57-10.4-10.37-10.4Z"/>
        <path class="cls-1" d="M361.2,254.13c0-.41.38-.78.82-.78.48,0,.82.37.82.78v22.23c0,.41-.34.78-.82.78-.45,0-.82-.37-.82-.78v-22.23Z"/>
        <path class="cls-1" d="M369.86,276.36c0,.41-.34.78-.82.78-.45,0-.82-.37-.82-.78v-21.89c0-.44.38-.82.82-.82h8.31c2.23,0,4.02.2,5.6,1.19,1.68,1.05,2.78,2.86,2.78,5.64s-1.13,4.39-2.78,5.47c-1.37.92-2.75,1.22-4.4,1.29l7.01,8.57c.14.2.21.34.21.54,0,.41-.38.78-.86.78-.34,0-.58-.14-.76-.37l-7.62-9.49h-6.66v9.08ZM369.86,255.05v10.84h7.14c1.85,0,3.37-.14,4.71-.88,1.34-.78,2.33-2.18,2.33-4.52s-.93-3.77-2.3-4.56c-1.31-.78-2.85-.88-4.71-.88h-7.18Z"/>
        <path class="cls-1" d="M391.73,275.38h14.12c.38,0,.69.31.69.71s-.31.71-.69.71h-14.94c-.45,0-.82-.37-.82-.78v-21.59c0-.41.38-.78.82-.78h14.94c.38,0,.69.34.69.71,0,.41-.31.71-.69.71h-14.12v9.42h12.33c.41,0,.72.34.72.71,0,.41-.31.75-.72.75h-12.33v9.42Z"/>
        <path class="cls-1" d="M411.96,275.38h14.12c.38,0,.69.31.69.71s-.31.71-.69.71h-14.94c-.45,0-.82-.37-.82-.78v-21.59c0-.41.38-.78.82-.78h14.94c.38,0,.69.34.69.71,0,.41-.31.71-.69.71h-14.12v9.42h12.33c.41,0,.72.34.72.71,0,.41-.31.75-.72.75h-12.33v9.42Z"/>
        <path class="cls-1" d="M443.35,256.24c-.48,0-1.03-.48-2.2-.85-1-.34-2.2-.61-3.64-.61-4.19,0-6.22,1.6-6.22,4.52,0,1.94,1.37,3.06,3.57,3.88,2.47.95,4.81,1.19,7.11,2.38,1.65.88,3.19,2.45,3.19,4.93,0,4.25-3.16,6.66-7.97,6.66-2.82,0-5.32-.95-6.9-1.84-.45-.24-.82-.65-.82-1.05,0-.51.38-.82.82-.82.55,0,.86.61,2.61,1.39,1.13.51,2.51.88,4.29.88,4.09,0,6.22-2.04,6.22-5.1,0-1.94-1.27-3.16-2.99-3.94-2.13-.99-4.4-1.22-7.08-2.38-2.2-.95-3.78-2.45-3.78-4.96,0-3.81,2.82-5.98,8-5.98,1.96,0,3.98.44,5.29,1.02.62.27,1.27.61,1.27,1.12,0,.44-.31.75-.79.75Z"/>
      </g>
    </g>
  </g>
</svg>