<?xml version="1.0" encoding="UTF-8"?>
<svg id="Layer_2" xmlns="http://www.w3.org/2000/svg" version="1.1" viewBox="0 0 331.3 258">
  <!-- Generator: Adobe Illustrator 29.6.1, SVG Export Plug-In . SVG Version: 2.1.1 Build 9)  -->
  <defs>
    <style>
      .st0 {
        fill: #fff;
      }
    </style>
  </defs>
  <g id="Layer_2-2">
    <g id="white">
      <path class="st0" d="M307.5,127.3l-76.5,36.2c3.8-1.7,65.8-37.2,71-39,0,0-3-6.1-7.8-10.1,0,0-35.3,17.5-52.5,28.3.4-1.3,29.9-22,46.9-29.6,2.6-.9,1.2-2.3.9-3-.3-.6-2-2.5-2-2.5l-.7-.7h0s-5.8-6.1-5.8-6.1c0,0,.6,4.7-4,7.5,0,0-.2.1-.2.2-12.1,7.4-36.2,22.7-46.7,33.9,1.2-1.4,11.6-13,29.7-25.7.6-.4,1.2-.8,1.8-1.2.1,0,.3-.2.5-.3,5.6-4,8.8-8.5,10.6-12.6,2.9-6.7,1.9-12.6,1.4-14.6.2,1.4,0,4.7-4.2,11.2-2.8,4.4-8.5,9.2-13.6,13-4.7,3.4-8.8,6-9.8,6.6,0,0,0,0,0,0,0,0-.1,0-.1,0-8.5,6-17.4,13.3-25,21.5-.7.8-1.4,1.5-2.1,2.3-5.1,5.8-8.2,10.1-10,13.2-4-7.3-11.6-18.4-24.4-27.7-21.1-15.4-45.4-23.5-40.4-67.8l-33.1,25.3s-1.9,12.2,26.1,28.3c26,14.9,51.6,34.8,55.3,37.6-23.1-13.9-58.2-35-63.7-38-8.2-4.5-26.8-13.2-22.3-38.7l-65.2,58.9v2.9l58.3-30.7,94.2,48.1-94-40.5-76.4,41,88.4,37.6,59.7-15.9s-7.1,2.7-58.5,17.9h0c2,3,6.4,8.1,13.6,8.9,10.2,1,17.5-1.8,17.5-1.8l72.5-21.4s7-3.1,9.6-7l82.7-42.3s1-2.6-1.6-3h0ZM195,172.1s14.8,7.6,28.1,0c0,0-13.2,11.6-28.1,0Z"/>
      <path id="stars" class="st0" d="M215.9,112.3l-.5-6.2c-.3-4.2-3-7.8-7-9.3l-5.9-2.2,6.2-.5c4.2-.3,7.8-3,9.3-7l2.2-5.9.5,6.2c.3,4.2,3,7.8,7,9.3l5.9,2.2-6.2.5c-4.2.3-7.8,3-9.3,7l-2.2,5.9ZM186.1,73.6c1.4-3.7,4.9-6.3,8.9-6.6h.9c0,0-.8-.4-.8-.4-3.7-1.4-6.3-4.9-6.6-8.8v-.9c0,0-.4.8-.4.8-1.4,3.7-4.9,6.3-8.9,6.6h-.9c0,0,.8.4.8.4,3.7,1.4,6.3,4.9,6.6,8.8v.9c0,0,.4-.8.4-.8ZM217.2,53c1.4-3.7,4.9-6.3,8.9-6.6h.9c0,0-.8-.4-.8-.4-3.7-1.4-6.3-4.9-6.6-8.9v-.9c0,0-.4.8-.4.8-1.4,3.7-4.9,6.3-8.9,6.6h-.9c0,0,.8.4.8.4,3.7,1.4,6.3,4.9,6.6,8.9v.9c0,0,.4-.8.4-.8ZM187.2,33.8c1.4-3.6,4.7-6.1,8.6-6.4h0c-3.6-1.4-6.1-4.7-6.4-8.6h0c-1.4,3.6-4.7,6.1-8.6,6.4h0c3.6,1.4,6.1,4.7,6.4,8.6h0ZM161.6,11.9c1.1-2.9,3.8-4.9,6.8-5.1h0c-2.9-1.1-4.9-3.8-5.1-6.8h0c-1.1,2.9-3.8,4.9-6.8,5.1h0c2.9,1.1,4.9,3.8,5.1,6.8h0Z"/>
    </g>
  </g>
</svg>