<?xml version="1.0" encoding="UTF-8"?>
<svg id="Layer_2" data-name="Layer 2" xmlns="http://www.w3.org/2000/svg" viewBox="0 0 792.79 285.48">
  <defs>
    <style>
      .cls-1 {
        letter-spacing: -.03em;
      }

      .cls-2 {
        letter-spacing: -.02em;
      }

      .cls-3, .cls-4, .cls-5 {
        fill: #fff;
      }

      .cls-6 {
        letter-spacing: -.02em;
      }

      .cls-7 {
        letter-spacing: 0em;
      }

      .cls-4 {
        font-family: QuicheDisplay-Medium, 'Quiche Display';
        font-size: 31px;
        font-weight: 500;
      }

      .cls-5 {
        font-family: HouschkaRounded-Thin, 'Houschka Rounded';
        font-size: 34px;
        font-weight: 200;
      }

      .cls-8 {
        letter-spacing: -.06em;
      }

      .cls-9 {
        letter-spacing: 0em;
      }
    </style>
  </defs>
  <g id="white">
    <path class="cls-3" d="M657.27,154.74l-76.51,36.22c3.75-1.66,65.83-37.19,70.95-39.01,0,0-3.05-6.06-7.75-10.1,0,0-35.3,17.45-52.53,28.28.35-1.27,29.91-22.04,46.89-29.59,2.57-.9,1.23-2.35.89-2.98-.34-.64-1.98-2.5-1.98-2.5l-.71-.74-.03-.03-5.75-6.08s.59,4.72-3.98,7.52c-.09.05-.17.11-.25.16-12.14,7.38-36.22,22.68-46.72,33.86,1.23-1.41,11.61-12.97,29.67-25.74.58-.41,1.16-.82,1.76-1.23.15-.1.31-.21.46-.32,5.64-4.04,8.84-8.47,10.59-12.58,2.86-6.69,1.92-12.56,1.43-14.61.18,1.38-.09,4.71-4.23,11.18-2.82,4.42-8.53,9.22-13.62,12.97-4.68,3.44-8.84,6-9.78,6.56-.03.02-.06.04-.08.05-.07.05-.11.07-.11.07-8.51,6.04-17.39,13.29-24.97,21.48-.7.76-1.4,1.53-2.08,2.31-5.07,5.8-8.21,10.06-10.03,13.19-4.01-7.3-11.62-18.38-24.4-27.69-21.13-15.39-45.39-23.48-40.44-67.82l-33.13,25.3s-1.94,12.18,26.12,28.3c25.97,14.91,51.64,34.77,55.32,37.64-23.05-13.87-58.24-35-63.7-37.99-8.21-4.52-26.8-13.21-22.3-38.65l-65.15,58.9v2.93l58.3-30.72,94.19,48.08-93.99-40.54-76.44,40.95,88.44,37.57,59.69-15.86s-7.06,2.72-58.46,17.94h0c1.99,2.97,6.44,8.13,13.64,8.87,10.17,1.04,17.47-1.83,17.47-1.83l72.53-21.39s7.04-3.13,9.65-7.04l82.69-42.27s.98-2.64-1.56-3.03ZM544.8,199.63s14.83,7.57,28.13,0c0,0-13.22,11.61-28.13,0Z"/>
    <path id="stars" class="cls-3" d="M565.72,139.78l-.49-6.25c-.33-4.19-3.04-7.82-6.97-9.31l-5.86-2.23,6.25-.49c4.19-.33,7.82-3.04,9.31-6.97l2.23-5.86.49,6.25c.33,4.19,3.04,7.82,6.97,9.31l5.86,2.23-6.25.49c-4.19.33-7.82,3.04-9.31,6.97l-2.23,5.86ZM535.9,101.07c1.42-3.73,4.87-6.31,8.85-6.62l.86-.07-.81-.31c-3.73-1.42-6.31-4.87-6.62-8.85l-.07-.86-.31.81c-1.42,3.73-4.87,6.31-8.85,6.62l-.86.07.81.31c3.73,1.42,6.31,4.87,6.62,8.85l.07.86.31-.81ZM567.01,80.47c1.42-3.73,4.87-6.31,8.85-6.62l.86-.07-.81-.31c-3.73-1.42-6.31-4.87-6.62-8.85l-.07-.86-.31.81c-1.42,3.73-4.87,6.31-8.85,6.62l-.86.07.81.31c3.73,1.42,6.31,4.87,6.62,8.85l.07.86.31-.81ZM537.03,61.28c1.38-3.63,4.73-6.13,8.6-6.43h0,0c-3.63-1.38-6.13-4.73-6.43-8.6h0s0,0,0,0c-1.38,3.63-4.73,6.13-8.6,6.43h0,0c3.63,1.38,6.13,4.73,6.43,8.6h0s0,0,0,0ZM511.35,39.4c1.1-2.88,3.75-4.86,6.82-5.1h0,0c-2.88-1.1-4.86-3.75-5.1-6.82h0s0,0,0,0c-1.1,2.88-3.75,4.86-6.82,5.1h0,0c2.88,1.1,4.86,3.75,5.1,6.82h0s0,0,0,0Z"/>
    <g>
      <text class="cls-4" transform="translate(349.78 276.8)"><tspan class="cls-1" x="0" y="0">S</tspan><tspan class="cls-8" x="17.73" y="0">T</tspan><tspan class="cls-9" x="34.78" y="0">O</tspan><tspan class="cls-6" x="60.36" y="0">R</tspan><tspan class="cls-2" x="80.91" y="0">Y</tspan><tspan class="cls-7" x="101.37" y="0">B</tspan><tspan x="122.6" y="0">OOK</tspan></text>
      <text class="cls-5" transform="translate(550.89 276.8)"><tspan x="0" y="0">SOIREES</tspan></text>
    </g>
  </g>
</svg>