<?xml version="1.0" encoding="UTF-8"?>
<svg id="Layer_1" data-name="Layer 1" xmlns="http://www.w3.org/2000/svg" viewBox="0 0 1980 198">
  <defs>
    <style>
      .cls-1 {
        fill: #a48eae;
      }
    </style>
  </defs>
  <path class="cls-1" d="M1980,0v198H0V61c2.94-1.08,9.43,1.34,11.31.85,1.48-.39,2.21-2.89,4.01-2.71,1.46.15,10.38,3.76,10.98,3.66,1.77-.29,9.21-3.76,11.04-3.6s6.99,3.72,9.49,4.46c3.41,1.01,20.21,1.04,23.47.3.74-.17.8-1.65,1.48-1.89,3.96-1.43,12.43-1.61,16.64-.99,2.38.35,6.28,2.93,6.95,2.81,1.25-.23,1.88-2.94,5.11-2.98,4.4-.05,7.62,4.95,14.05,4.17,2.75-.33,2.46-7.18,7.88-7.07,4.61.09,3.43,3.44,4.86,4.72.64.57,7.12,3.34,8.24,3.33,2.35,0,3.92-1.69,6.05-2.01,2.87-.43,12.08,1.19,13.45-.07,1.99-1.82-2.21-2.04-2-2.49,4.8-8.35,10.47-2.41,14.32-2.73,1.7-.14,4.75-2.37,7.43-2.53,7.12-.43,18.13-.52,24.63-.13,5.58.33,19.83.19,24.91-1.1,1.09-.28,1.05-3.5,6.2-4.03s13.19,2.35,19.19,2.63c13.75.64,33.63,1.56,46.84,1.2,4.56-.13,11.95-3.07,16.97-2.87,3.21.13,5.42,2.63,8.99,3.09,6.24.8,9.53-1.72,12.97-1.92,3.22-.19,9.76,1.97,13.09,1.93,2.51-.03,4.09-1.92,5.94-1.95,1.97-.03,3.96,1.87,5.89,1.68,2.32-.23,3.71-3.15,5.37-3.61,2.26-.62,3.95.73,5.65.56,1.46-.15,2.76-1.73,5.09-1.76,4.05-.05,11.07,2.3,15.07,2.15,1.84-.07,1.33-1.96,2.14-2.13,4.16-.89,10.78,2.99,12.82,3,1.24,0,6.57-2.95,10.06-3.01,5.04-.09,10.3,2.8,13.93,3.13,4.87.44,15.48-1.72,21.02-2.09,3.35-.22,14.41.95,15.97-1.03.6-.76.52-2.36,1.54-3.45,4.04-4.31,16.51.11,22.48.46,12.14.71,24.81-.23,37.03-.03,9.38.15,16.92.85,26.04.13,10.95-.86,21.65,1.01,31.81.81,4.4-.08,10.12-2.33,14.38-2.65,1.46-.11,4.86,1.11,5.23.75.16-.15-.32-1.84.27-2.66,3.22-4.52,13.47.22,18.25.66,11.31,1.04,29.39.91,40.05-.93,10.5-1.81,20.35-1.37,30.83-3.18,2.74-.47,5.32-2.4,8.26-2.53,3.96-.17,8.77,2.82,11.79,2.62,6.64-.44,15.11-6.98,25.05-7.06,25.31-.19,51.61.29,76.97,1.04,8.6.25,18.72,3.29,26.18,3.73,3.21.19,10.58-2.42,14.86-2.49,3.86-.06,11.69,2.08,14.96,1.78,1.96-.18,3.32-2.44,5.26-2.84,8.03-1.63,16.64,1.15,23.82.91,2.37-.08,3.36-2,5.79-2.02,6.11-.06,9.38,3.12,17.89,1.73,8.38-1.37,3.64-.28,10.49,1,5.54,1.04,20.49,2.08,25.72,1.17,2.72-.48,5.28-2.91,9.11-2.97,4.29-.08,13.23,2.44,16.91,2.02,1.52-.17,2.49-1.83,4.01-1.93,3.17-.21,7.96,3.89,10.88,3.89,6.56.01,6.88-5.56,11.25-5.96,4.22-.38,4.27,2.42,6.09,2.85,1.45.35,3.16-.94,4.71-.76,7.76.89,13.13,3.6,20.92-.3,2.1-1.05,4.04-3.81,4.33-3.83,2.72-.25,7.27,2.28,10.74,2,7.73-.61,17.43-4.23,24.26-4.91,23.36-2.34,47.61-2.71,70.85-3.15l27.94,2.12c3.49-.45,3.93-4.52,5.56-5.55,2.23-1.4,14.34,3.85,16.82,2.35.52-.31.78-2.64,1.69-2.84,1.09-.23,2.17,1.58,3.13,1.75,1.28.23,2.68-.92,3.7-.81,1.16.13.68,3.1,3.15,3.12,3,.03,2.49-4.26,4.24-5.04,5.8-2.57,14.59-1.56,20.74-2.02,12.53-.93,28.25-2.95,39.91,2.11,2.2.96,4.34,3.74,6.12,3.91,3.16.3,11.24-3.01,11.85-2.92,1.21.2,2.39,2.98,4.37,3.67,11.41,3.97,37.55,1.37,50.6.86,2.92-.11,6.62-1.7,9.2-1.65,2.96.06,5.79,2.48,9.05,2.94,4.65.66,10.98.07,15.9.09,12.89.08,27.52-2.16,39.96-2.04,3.41.03,8.46,2.03,11.94,1.93,2.94-.08,6.37-1.83,9.61-1.9.54-.01,2.41,1.84,5.33.85s.22-4.86,7.26-5.74c9.63-1.2,18.56-1.21,28.2-.4,1.92.16,3.68,1.45,3.2-1.72.33.01.67-.02,1,0,9.55.45,13.07,1.5,21.67,2.68,2.8.39,8.79-1.63,12.33-.68.91.53,2.78.81,3,1,.15.13-.28,1.52.11,1.84,1.08.88,12.7-5.87,18.34-4.8,1.82.35,2.94,2.16,5.04,1.99,1.06-.08.27-1.82.51-2.03.79-.71,2.07-.67,3-1-1.24,3.64,6.83,2.16,6-1,.61-.11,1.36.09,2,0,2.08-.28,3.71-1.82,5.45-1.87,2.43-.07,6.23,2.88,5.55-1.13.63.1,1.35-.06,2,0,.09.56-.17,1.87,0,2,.61.46,11.4.94,10.01-3,.66-.03,1.34.03,2,0,5.67,1.74,15.37,1.37,20.64-.87,1.71-.73,3.56-.21,3.36-3.13,1.33.03,2.68-.07,4,0,.09,0-.14.82,1.48.97,2.69.25,7.52,1.02,6.52-1.97,2.32-.07,4.68-.01,7,0,.14,1.5,2.86,1.5,3,0,.67.02,1.33-.02,2,0-.61,2.97,2.55,3.13,2,0,23.61.72,46.44,1.53,69.55,1.98,7.35.14,16.91,2.99,22.95,3.01,4.03.01,10.38-2.2,15-1.97,8.01.41,15.45,1.51,24,1.89,4.07.18,13.07,3.13,15.03,3.09s2.75-2.5,4.09-2.78c1.99-.41,7.05,2.55,10.9,1.83,2.48-.47,2.08-2.79,3.18-3.07,2.45-.62,8.61.1,11.79.02,12-.29,23.61.39,35.27,1.84,4.5.56,10.28-.67,13.73-.81,1.55-.06,2.88,1.69,4.81,1.71,2.72.03,5.35-2.38,8.15-2.78,7.46-1.06,17.86,1.03,27,0s17.34.06,25.08-.92c2.96-.37,4.76-2.11,7.96-2.12,7.54-.03,14.13,4.04,22.27-.67,1.7-.98,1.98-2.85,3.01-3.21,3.18-1.11,8.74-1.25,12.23-3.03Z"/>
</svg>